<svg width="193" height="243" viewBox="0 0 193 243" fill="none" xmlns="http://www.w3.org/2000/svg">
<path d="M4.82812 51V9.75H16.1719C19.1406 9.75 21.375 10.5781 22.875 12.2344C24.375 13.875 25.125 16.2812 25.125 19.4531V38.7656C25.125 42.6719 24.4375 45.6875 23.0625 47.8125C21.7031 49.9375 19.3125 51 15.8906 51H4.82812ZM13.125 43.7109H14.5547C16.0703 43.7109 16.8281 42.9766 16.8281 41.5078V20.2266C16.8281 18.8516 16.6406 17.9688 16.2656 17.5781C15.9062 17.1719 15.1641 16.9688 14.0391 16.9688H13.125V43.7109ZM42.1191 51.375C38.6816 51.375 36.1503 50.4141 34.5253 48.4922C32.9003 46.5547 32.0878 43.7109 32.0878 39.9609V9.75H40.1034V39.6328C40.1034 40.3203 40.1425 40.9844 40.2206 41.625C40.2987 42.25 40.4784 42.7656 40.7597 43.1719C41.0409 43.5781 41.4941 43.7812 42.1191 43.7812C42.7597 43.7812 43.2206 43.5859 43.5019 43.1953C43.7831 42.7891 43.955 42.2656 44.0175 41.625C44.0956 40.9844 44.1347 40.3203 44.1347 39.6328V9.75H52.1503V39.9609C52.1503 43.7109 51.3378 46.5547 49.7128 48.4922C48.0878 50.4141 45.5566 51.375 42.1191 51.375ZM59.3944 51V9.75H72.0506C74.16 9.75 75.7537 10.2344 76.8319 11.2031C77.91 12.1563 78.6287 13.5 78.9881 15.2344C79.3631 16.9531 79.5506 18.9766 79.5506 21.3047C79.5506 23.5547 79.2616 25.3516 78.6834 26.6953C78.1209 28.0391 77.0506 28.9688 75.4725 29.4844C76.7694 29.75 77.6756 30.3984 78.1912 31.4297C78.7225 32.4453 78.9881 33.7656 78.9881 35.3906V51H70.8553V34.8516C70.8553 33.6484 70.6053 32.9062 70.1053 32.625C69.6209 32.3281 68.8319 32.1797 67.7381 32.1797V51H59.3944ZM67.785 25.0312H69.7772C70.9178 25.0312 71.4881 23.7891 71.4881 21.3047C71.4881 19.6953 71.3631 18.6406 71.1131 18.1406C70.8631 17.6406 70.3944 17.3906 69.7069 17.3906H67.785V25.0312ZM85.2244 51L89.2087 9.75H103.201L107.115 51H99.3103L98.7244 44.3438H93.7556L93.24 51H85.2244ZM94.3416 37.7578H98.0916L96.2869 16.7812H95.9119L94.3416 37.7578ZM113.726 51V9.75H122.211L126.007 29.5078V9.75H133.976V51H125.914L121.789 30.375V51H113.726ZM150.22 51.375C144.33 51.375 141.384 47.1562 141.384 38.7188V20.9297C141.384 13.2266 144.759 9.375 151.509 9.375C154.291 9.375 156.423 9.9375 157.908 11.0625C159.392 12.1719 160.416 13.7969 160.978 15.9375C161.541 18.0781 161.822 20.6875 161.822 23.7656H153.759V20.1094C153.759 19.2188 153.634 18.4766 153.384 17.8828C153.15 17.2734 152.65 16.9688 151.884 16.9688C150.931 16.9688 150.298 17.2891 149.986 17.9297C149.689 18.5703 149.541 19.2734 149.541 20.0391V40.0312C149.541 41.1406 149.681 42.0469 149.962 42.75C150.259 43.4375 150.83 43.7812 151.673 43.7812C152.548 43.7812 153.127 43.4375 153.408 42.75C153.705 42.0469 153.853 41.125 153.853 39.9844V34.1016H151.65V26.9766H161.728V51H158.423L157.017 47.5312C155.58 50.0938 153.314 51.375 150.22 51.375ZM178.933 51.375C175.636 51.375 173.113 50.3828 171.363 48.3984C169.628 46.3984 168.761 43.5156 168.761 39.75V20.1562C168.761 16.625 169.621 13.9453 171.339 12.1172C173.074 10.2891 175.605 9.375 178.933 9.375C182.261 9.375 184.785 10.2891 186.503 12.1172C188.238 13.9453 189.105 16.625 189.105 20.1562V39.75C189.105 43.5156 188.23 46.3984 186.48 48.3984C184.746 50.3828 182.23 51.375 178.933 51.375ZM179.003 43.7812C180.253 43.7812 180.878 42.5703 180.878 40.1484V20.0156C180.878 17.9844 180.269 16.9688 179.05 16.9688C177.675 16.9688 176.988 18.0078 176.988 20.0859V40.1953C176.988 41.4766 177.144 42.3984 177.457 42.9609C177.769 43.5078 178.285 43.7812 179.003 43.7812Z" fill="#F1E5C1"/>
<path d="M8.479 219V184.978H3.47852V176.891H21.9014V184.978H16.9009V219H8.479ZM27.9211 219V176.891H40.841C42.9943 176.891 44.6213 177.385 45.7219 178.374C46.8225 179.347 47.5562 180.719 47.923 182.489C48.3059 184.244 48.4973 186.309 48.4973 188.686C48.4973 190.983 48.2022 192.817 47.612 194.189C47.0378 195.561 45.9452 196.51 44.3342 197.036C45.6581 197.307 46.5832 197.969 47.1096 199.022C47.6519 200.059 47.923 201.407 47.923 203.065V219H39.6208V202.515C39.6208 201.287 39.3656 200.529 38.8552 200.242C38.3607 199.939 37.5552 199.788 36.4387 199.788V219H27.9211ZM36.4865 192.49H38.5202C39.6846 192.49 40.2668 191.222 40.2668 188.686C40.2668 187.043 40.1392 185.966 39.884 185.456C39.6288 184.946 39.1503 184.69 38.4484 184.69H36.4865V192.49ZM53.7992 219L57.8666 176.891H72.1503L76.1459 219H68.1786L67.5805 212.205H62.5082L61.9818 219H53.7992ZM63.1063 205.482H66.9345L65.0922 184.068H64.7094L63.1063 205.482ZM82.0221 219V176.891H90.1568V219H82.0221ZM97.1814 219V176.891H105.843L109.719 197.06V176.891H117.853V219H109.623L105.412 197.945V219H97.1814ZM124.878 219V176.891H133.013V219H124.878ZM140.037 219V176.891H148.698L152.574 197.06V176.891H160.709V219H152.479L148.268 197.945V219H140.037ZM176.802 219.383C170.788 219.383 167.782 215.076 167.782 206.463V188.303C167.782 180.44 171.227 176.508 178.118 176.508C180.957 176.508 183.134 177.082 184.649 178.23C186.165 179.363 187.209 181.022 187.784 183.207C188.358 185.392 188.645 188.056 188.645 191.198H180.414V187.466C180.414 186.557 180.287 185.799 180.032 185.193C179.792 184.571 179.282 184.26 178.5 184.26C177.527 184.26 176.881 184.587 176.562 185.241C176.259 185.895 176.108 186.612 176.108 187.394V207.803C176.108 208.935 176.251 209.86 176.538 210.578C176.842 211.28 177.424 211.631 178.285 211.631C179.178 211.631 179.768 211.28 180.056 210.578C180.359 209.86 180.51 208.919 180.51 207.755V201.75H178.261V194.476H188.549V219H185.176L183.74 215.459C182.273 218.075 179.96 219.383 176.802 219.383Z" fill="#F1E5C1"/>
<path d="M4.57031 165V61.875H32.9297C40.3516 61.875 45.9375 63.9453 49.6875 68.0859C53.4375 72.1875 55.3125 78.2031 55.3125 86.1328V134.414C55.3125 144.18 53.5938 151.719 50.1562 157.031C46.7578 162.344 40.7812 165 32.2266 165H4.57031ZM25.3125 146.777H28.8867C32.6758 146.777 34.5703 144.941 34.5703 141.27V88.0664C34.5703 84.6289 34.1016 82.4219 33.1641 81.4453C32.2656 80.4297 30.4102 79.9219 27.5977 79.9219H25.3125V146.777ZM96.7594 165.938C88.5172 165.938 82.2086 163.457 77.8336 158.496C73.4977 153.496 71.3297 146.289 71.3297 136.875V87.8906C71.3297 79.0625 73.4781 72.3633 77.775 67.793C82.1109 63.2227 88.4391 60.9375 96.7594 60.9375C105.08 60.9375 111.388 63.2227 115.685 67.793C120.021 72.3633 122.189 79.0625 122.189 87.8906V136.875C122.189 146.289 120.002 153.496 115.627 158.496C111.291 163.457 105.002 165.938 96.7594 165.938ZM96.9352 146.953C100.06 146.953 101.623 143.926 101.623 137.871V87.5391C101.623 82.4609 100.099 79.9219 97.0523 79.9219C93.6148 79.9219 91.8961 82.5195 91.8961 87.7148V137.988C91.8961 141.191 92.2867 143.496 93.068 144.902C93.8492 146.27 95.1383 146.953 96.9352 146.953ZM160.179 165.938C145.452 165.938 138.089 155.391 138.089 134.297V89.8242C138.089 70.5664 146.527 60.9375 163.402 60.9375C170.355 60.9375 175.687 62.3438 179.398 65.1562C183.109 67.9297 185.667 71.9922 187.073 77.3438C188.48 82.6953 189.183 89.2188 189.183 96.9141H169.027V87.7734C169.027 85.5469 168.714 83.6914 168.089 82.207C167.503 80.6836 166.253 79.9219 164.339 79.9219C161.956 79.9219 160.374 80.7227 159.593 82.3242C158.851 83.9258 158.48 85.6836 158.48 87.5977V137.578C158.48 140.352 158.831 142.617 159.534 144.375C160.277 146.094 161.702 146.953 163.812 146.953C165.999 146.953 167.445 146.094 168.148 144.375C168.89 142.617 169.261 140.312 169.261 137.461V122.754H163.753V104.941H188.948V165H180.687L177.171 156.328C173.577 162.734 167.913 165.938 160.179 165.938Z" fill="#9CA117"/>
</svg>
