<?xml version="1.0" encoding="UTF-8"?>
<svg id="Layer_1" data-name="Layer 1" xmlns="http://www.w3.org/2000/svg" xmlns:xlink="http://www.w3.org/1999/xlink" viewBox="0 0 335.05 292.1">
  <defs>
    <style>
      .cls-1 {
        filter: url(#drop-shadow-1);
      }

      .cls-2 {
        filter: url(#drop-shadow-2);
      }

      .cls-3 {
        fill: url(#linear-gradient-2);
      }

      .cls-4 {
        fill: #f4f4e8;
      }

      .cls-5 {
        fill: url(#linear-gradient);
      }

      .cls-6 {
        fill: #fff;
      }

      .cls-7 {
        font-family: TradeGothicNextLTPro-BdCm, 'Trade Gothic Next LT Pro';
        font-size: 24.32px;
      }

      .cls-7, .cls-8, .cls-9 {
        fill: #3a3a32;
      }

      .cls-10 {
        fill: #939801;
      }

      .cls-11 {
        fill: #f6ca45;
      }

      .cls-12 {
        fill: #b5b66d;
      }

      .cls-13 {
        fill: #7f8001;
      }

      .cls-8 {
        stroke: #3a3a32;
        stroke-miterlimit: 10;
        stroke-width: 4px;
      }

      .cls-14 {
        letter-spacing: .04em;
      }

      .cls-15 {
        letter-spacing: .04em;
      }

      .cls-16 {
        letter-spacing: .03em;
      }

      .cls-17 {
        fill: #eae3ca;
      }
    </style>
    <linearGradient id="linear-gradient" x1="157.8" y1="91.29" x2="222.28" y2="404.8" gradientUnits="userSpaceOnUse">
      <stop offset="0" stop-color="#939801"/>
      <stop offset="1" stop-color="#000"/>
    </linearGradient>
    <filter id="drop-shadow-1" x="79.99" y="80.77" width="163.23" height="72.24" filterUnits="userSpaceOnUse">
      <feOffset dx="-6" dy="6"/>
      <feGaussianBlur result="blur" stdDeviation="0"/>
      <feFlood flood-color="#000" flood-opacity=".2"/>
      <feComposite in2="blur" operator="in"/>
      <feComposite in="SourceGraphic"/>
    </filter>
    <linearGradient id="linear-gradient-2" x1="163.98" y1="207.89" x2="165.06" y2="336.27" gradientUnits="userSpaceOnUse">
      <stop offset="0" stop-color="#516b44"/>
      <stop offset="1" stop-color="#000"/>
    </linearGradient>
    <filter id="drop-shadow-2" x="74.96" y="30.09" width="174.14" height="41.93" filterUnits="userSpaceOnUse">
      <feOffset dx="-3" dy="3"/>
      <feGaussianBlur result="blur-2" stdDeviation="0"/>
      <feFlood flood-color="#000" flood-opacity=".2"/>
      <feComposite in2="blur-2" operator="in"/>
      <feComposite in="SourceGraphic"/>
    </filter>
  </defs>
  <path class="cls-13" d="M15.65,114.3s0,27.29,30.07,57.21c30.07,29.92,50.19,27.99,50.19,27.99,0,0-8.83-23.49-29.23-45.32-20.4-21.83-51.03-39.88-51.03-39.88Z"/>
  <path class="cls-12" d="M23.96,131.36s1.23,17.5,21.87,35.34c20.63,17.84,33.45,15.69,33.45,15.69,0,0-6.72-14.67-20.79-27.75-14.07-13.09-34.53-23.28-34.53-23.28Z"/>
  <path class="cls-13" d="M318.77,108.78s0,27.29-30.07,57.21c-30.07,29.92-50.19,27.99-50.19,27.99,0,0,8.83-23.49,29.23-45.32,20.4-21.83,51.03-39.88,51.03-39.88Z"/>
  <path class="cls-12" d="M310.47,125.83s-1.23,17.5-21.87,35.34c-20.63,17.84-33.45,15.69-33.45,15.69,0,0,6.72-14.67,20.79-27.75,14.07-13.09,34.53-23.28,34.53-23.28Z"/>
  <g>
    <path class="cls-10" d="M75.67,181.42c-10.92-18.69-34.64-40.01-75.67-40.75,4.14,42.25,41.04,77.77,92.61,84.87,4.52-21.69-16.94-44.12-16.94-44.12Z"/>
    <path class="cls-13" d="M9.04,148.52l2.78,1.47,2.67,1.66c1.77,1.12,3.49,2.34,5.22,3.52,1.69,1.24,3.41,2.45,5.09,3.71,1.67,1.28,3.35,2.53,5,3.82,6.63,5.15,13.08,10.53,19.4,16.04,6.31,5.52,12.52,11.18,18.47,17.07,5.91,5.91,11.72,11.99,16.6,18.63l2.38-1.75c-5.28-6.76-11.31-12.69-17.44-18.48-6.17-5.75-12.56-11.24-19.05-16.6-6.5-5.34-13.12-10.54-19.91-15.51-1.69-1.25-3.42-2.45-5.12-3.68-1.71-1.22-3.47-2.38-5.2-3.57-1.77-1.14-3.52-2.3-5.33-3.37l-2.73-1.59-2.83-1.39Z"/>
    <path class="cls-13" d="M37.53,156.26c.33,2.01.47,4.05.42,6.09-.02,1.02-.08,2.04-.19,3.05-.05.51-.11,1.01-.19,1.52l-.12.75-.03.19-.02.09h0s-.01.05-.01.05h-.03s.03,0-.1.01l-.55.07-1.11.13c-.74.08-1.49.15-2.23.2-4.61.61-9.33.94-13.98.12,4.55,1.26,9.37,1.4,14.1,1.22.75-.11,1.5-.24,2.25-.38l2.51-.5c.15-.94.15-1.26.2-1.83.03-.52.05-1.04.07-1.56.02-1.04,0-2.08-.06-3.11-.11-2.07-.42-4.12-.92-6.1Z"/>
    <path class="cls-13" d="M26.15,148.78c.47.62.62,1.57.68,2.47.05.92,0,1.86-.07,2.79-.09.93-.21,1.87-.37,2.8l-.25,1.39-.14.69-.06.28v.03s-.05,0-.05,0l-.37.07-.79.14c-.53.09-1.06.17-1.6.24-1.98.41-3.98.7-6.01.79-2.02.06-4.07-.07-6.01-.74,1.86.88,3.94,1.25,6,1.41,2.07.14,4.15.07,6.22-.13.54-.12,1.08-.26,1.62-.4l1.87-.53.1-.58.05-.4.08-.72.13-1.44c.07-.96.11-1.92.11-2.88,0-.96-.05-1.91-.19-2.85-.15-.91-.4-1.88-.94-2.45Z"/>
    <path class="cls-13" d="M63.27,175.79c1.14,2.66,1.56,5.62,1.79,8.54.12,1.47.16,2.94.16,4.42,0,.74,0,1.47-.03,2.21l-.04,1.1-.03.51v.05s-4.09.21-4.09.21c-3.1.28-6.21.49-9.33.6-3.11.1-6.24.1-9.34-.24,3.08.57,6.21.79,9.34.92,3.13.11,6.27.13,9.4.07l5.02-.56.03-.93v-.59s-.03-1.12-.03-1.12c-.02-.75-.05-1.49-.1-2.24-.09-1.49-.22-2.98-.43-4.45-.41-2.93-1.01-5.91-2.32-8.49Z"/>
    <path class="cls-13" d="M49.72,162.94c.54,1.26.77,2.7.92,4.12.15,1.43.23,2.87.25,4.32.02,1.45,0,2.9-.04,4.35l-.1,2.17-.06,1.09-.04.53v.11s-.06,0-.06,0l-.32.06-.82.15-1.64.27c-1.1.17-2.2.32-3.3.44-3.3.53-6.62.91-9.97.97-3.33.03-6.72-.19-9.88-1.4,3.07,1.41,6.5,1.88,9.87,2.07,3.38.17,6.78,0,10.15-.31,1.11-.19,2.22-.4,3.32-.63l1.65-.36,1.92-.46.03-.83v-.56s.01-1.1.01-1.1l-.02-2.19c-.03-1.46-.1-2.92-.2-4.38-.1-1.46-.26-2.91-.49-4.34-.23-1.42-.55-2.87-1.17-4.1Z"/>
  </g>
  <g>
    <path class="cls-10" d="M259.38,181.7c10.92-18.82,34.64-40.28,75.67-41.04-4.14,42.54-41.04,78.31-92.61,85.46-4.52-21.84,16.94-44.42,16.94-44.42Z"/>
    <path class="cls-13" d="M326.02,148.57l-2.83,1.4-2.73,1.6c-1.81,1.08-3.56,2.26-5.33,3.4-3.49,2.36-6.93,4.8-10.33,7.3-6.79,5-13.41,10.24-19.91,15.62-6.49,5.39-12.88,10.92-19.05,16.71-6.13,5.83-12.15,11.8-17.43,18.59l2.38,1.74c4.87-6.68,10.68-12.8,16.58-18.75,5.95-5.93,12.15-11.62,18.46-17.18,6.32-5.55,12.77-10.97,19.4-16.16,3.32-2.59,6.68-5.13,10.09-7.59,1.73-1.19,3.45-2.42,5.22-3.55l2.68-1.68,2.79-1.48Z"/>
    <path class="cls-13" d="M296.76,156.22c-.41,2.07-.63,4.18-.65,6.29-.02,1.05.01,2.11.08,3.16.04.53.08,1.05.14,1.58l.1.79.07.48.13.72,1.53.26,1.12.17c.75.11,1.49.2,2.24.28,4.74.18,9.58.04,14.14-1.22-4.66.83-9.39.5-14.02-.12-.74-.02-1.48-.05-2.22-.1l-1.11-.07-.55-.05c-.16-.01-.17,0-.28,0-.03-.09-.07-.17-.13-.48l-.16-.76c-.1-.51-.18-1.02-.26-1.53-.15-1.03-.26-2.06-.33-3.1-.15-2.08-.1-4.18.15-6.28Z"/>
    <path class="cls-13" d="M308.32,148.32c-.72.91-.86,1.96-.98,2.94-.09.99-.08,1.97-.04,2.95.05.97.15,1.94.26,2.91l.2,1.44.12.72.21,1.1,1.18.29.8.18c.54.11,1.08.22,1.62.31,2.08.2,4.16.28,6.24.14,2.07-.16,4.16-.53,6.02-1.42-1.95.68-4.01.81-6.03.75-2.03-.09-4.04-.38-6.02-.8-.53-.04-1.06-.1-1.6-.16l-.8-.1-.37-.05h-.15s-.05-.12-.05-.12c-.01-.03-.06-.21-.08-.3l-.18-.69-.33-1.4c-.2-.94-.38-1.88-.52-2.83-.13-.95-.22-1.91-.22-2.89.04-.97.07-1.99.72-2.96Z"/>
    <path class="cls-13" d="M271.08,175.7c-1.28,2.82-1.77,5.85-2.08,8.85-.16,1.5-.23,3.01-.28,4.52-.02.75-.03,1.51-.02,2.26v1.13s.03.6.03.6l.05,1.07,2.83.24,2.29.17c3.14.06,6.29.05,9.43-.06,3.14-.12,6.29-.35,9.37-.92-3.12.35-6.25.35-9.37.25-3.12-.11-6.24-.32-9.35-.61l-2.29-.03-1.14-.03h-.51s-.23,0-.23,0l-.04-.18-.05-.53-.08-1.11c-.05-.74-.09-1.49-.11-2.23-.05-1.49-.06-2.99,0-4.48.14-2.98.43-6.01,1.55-8.89Z"/>
    <path class="cls-13" d="M284.63,162.75c-.64,1.43-.9,2.91-1.1,4.38-.19,1.48-.3,2.95-.35,4.43-.06,1.48-.07,2.95-.06,4.43l.05,2.21.04,1.11.08,1.56,2.08.44,1.65.31c1.1.2,2.2.37,3.31.53,3.38.32,6.78.48,10.18.32,3.38-.19,6.82-.66,9.89-2.08-3.16,1.22-6.57,1.44-9.9,1.41-3.35-.06-6.69-.45-9.99-.98-1.1-.09-2.19-.21-3.29-.34l-1.64-.21c-.5-.07-1.25-.19-1.35-.19l-.04-.27-.05-.54-.1-1.09-.17-2.19c-.1-1.46-.16-2.93-.18-4.4-.03-1.47,0-2.94.11-4.42.12-1.47.28-2.95.85-4.41Z"/>
  </g>
  <path class="cls-8" d="M163.95,288.11c35.29-16.9,96.12-24.03,106.71-54.44,5.93-17.03,3.68-214.77,3.68-214.77,0,0-41.26-16.9-110.18-16.9h-.72c-68.92,0-110.18,16.9-110.18,16.9,0,0-2.25,197.74,3.68,214.77,10.59,30.41,71.41,37.55,106.71,54.44h.3Z"/>
  <g>
    <path class="cls-5" d="M163.79,274.02c-10.12-4.75-22.59-8.74-34.65-12.6-27.07-8.66-55.06-17.6-61.4-35.81-4.18-12-3.98-131.85-3.28-194.8,3.08-1.14,11.85-4.19,25.38-7.2,15.71-3.5,41.23-7.67,73.62-7.67h.66c32.39,0,57.91,4.17,73.62,7.67,13.53,3.01,22.3,6.06,25.38,7.2.7,62.95.9,182.81-3.28,194.8-6.34,18.21-34.33,27.16-61.4,35.81-12.06,3.86-24.53,7.84-34.65,12.6Z"/>
    <path class="cls-4" d="M164.12,17.94c32.14,0,57.47,4.13,73.06,7.59,11.93,2.65,20.13,5.32,23.95,6.68.79,72.61.59,181.91-3.18,192.74-6.01,17.26-33.52,26.06-60.12,34.56-11.79,3.77-23.97,7.66-34.05,12.3-10.08-4.63-22.25-8.53-34.05-12.3-26.6-8.51-54.11-17.3-60.12-34.56-3.77-10.83-3.97-120.12-3.18-192.74,3.82-1.36,12.02-4.03,23.95-6.68,28.24-6.27,55.32-7.59,73.06-7.59h.66M164.12,13.94h-.66c-63.17,0-100.98,15.49-100.98,15.49,0,0-2.06,181.23,3.37,196.84,9.7,27.87,65.45,34.41,97.8,49.9h.28c32.35-15.49,88.1-22.02,97.8-49.9,5.43-15.61,3.37-196.84,3.37-196.84,0,0-37.81-15.49-100.98-15.49h0Z"/>
  </g>
  <g class="cls-1">
    <path class="cls-4" d="M108.75,82.39c16.92,0,22.5,6.84,22.5,21.6v19.71c0,14.76-5.58,21.69-22.5,21.69h-20.07c-1.71,0-2.7-.99-2.7-2.7v-57.51c0-1.8.9-2.7,2.7-2.79h20.07ZM109.02,129.91c4.32,0,6.48-.72,6.48-6.12v-19.8c0-5.58-2.16-6.12-6.48-6.12h-4.86c-1.71,0-2.7.9-2.7,2.7v26.64c0,1.71.99,2.7,2.7,2.7h4.86Z"/>
    <path class="cls-4" d="M187.23,125.14c0,5.94-1.26,21.87-22.59,21.87s-22.59-15.93-22.59-21.87v-22.5c0-5.94,1.26-21.87,22.59-21.87s22.59,15.93,22.59,21.87v22.5ZM171.75,107.41c0-6.93-.45-11.16-7.11-11.16s-7.11,4.23-7.11,11.16v12.96c0,6.93.45,11.16,7.11,11.16s7.11-4.23,7.11-11.16v-12.96Z"/>
    <path class="cls-4" d="M198.03,102.64c0-5.94,1.26-21.87,22.59-21.87,18.9,0,22.05,12.42,22.5,19.44.09,1.62-.72,2.61-2.34,2.97l-10.17,2.25c-1.8.36-2.79-.45-2.97-2.34-.36-4.32-1.89-6.84-7.02-6.84-6.66,0-7.11,4.23-7.11,11.16v12.96c0,6.93.45,11.16,7.11,11.16s7.11-4.23,7.11-8.64h-5.22c-1.71,0-2.7-.99-2.7-2.7v-7.2c0-1.8.99-2.7,2.7-2.7h18c1.8,0,2.7.9,2.7,2.7v12.15c0,5.94-1.26,21.87-22.59,21.87s-22.59-15.93-22.59-21.87v-22.5Z"/>
  </g>
  <text class="cls-7" transform="translate(83.27 201.4)"><tspan class="cls-15" x="0" y="0">TRAINING </tspan><tspan class="cls-16" x="81.86" y="0">AC</tspan><tspan class="cls-14" x="103.12" y="0">ADEMY</tspan></text>
  <g>
    <path class="cls-3" d="M163.79,273.4c-10.12-4.75-22.59-8.74-34.66-12.6-27.07-8.66-55.06-17.6-61.39-35.81-.85-2.44-2.01-11.32-2.79-39.59h197.68c-.78,28.27-1.94,37.15-2.79,39.59-6.34,18.21-34.33,27.15-61.39,35.81-12.07,3.86-24.53,7.84-34.66,12.6Z"/>
    <path class="cls-4" d="M260.58,187.4c-.81,27.8-1.98,35.09-2.62,36.93-6.01,17.26-33.52,26.06-60.12,34.56-11.79,3.77-23.97,7.66-34.05,12.3-10.08-4.63-22.25-8.53-34.05-12.3-26.6-8.51-54.11-17.3-60.12-34.56-.64-1.85-1.81-9.13-2.62-36.93h193.57M264.69,183.4H62.9c.56,21.64,1.48,38.02,2.96,42.25,9.7,27.87,65.45,34.41,97.8,49.9h.28c32.35-15.49,88.1-22.02,97.8-49.9,1.47-4.23,2.39-20.61,2.96-42.25h0Z"/>
  </g>
  <g>
    <path class="cls-17" d="M122.43,244.16v-15.06h6.13v2.12h-3.84v4.13h3.02v2.06h-3.02v4.64h4.07v2.12h-6.36Z"/>
    <path class="cls-17" d="M135.13,233.15c-.06-1.32-.42-2.22-1.32-2.22-.78,0-1.09.5-1.09,1.32,0,3.21,4.66,3.86,4.66,8.33,0,2.33-1.3,3.76-3.57,3.76-2.41,0-3.29-1.41-3.44-4.09l2.12-.12c.13,1.57.44,2.27,1.36,2.27.8,0,1.26-.61,1.26-1.62,0-3.29-4.59-3.97-4.59-8.31,0-2.14,1.13-3.53,3.25-3.53,2.48,0,3.27,1.68,3.42,4.09l-2.06.13Z"/>
    <path class="cls-17" d="M140.9,244.16v-12.95h-2.27v-2.12h6.82v2.12h-2.25v12.95h-2.31Z"/>
    <path class="cls-17" d="M147.11,234.66l1.07-2.88h-.8v-2.69h2.27v2.58l-1.17,2.98h-1.36Z"/>
    <path class="cls-17" d="M152.23,244.16v-15.06h2.48c3.57,0,5.08,1.8,5.08,7.39,0,4.95-.96,7.68-4.8,7.68h-2.75ZM155.13,242c1.66,0,2.27-1.62,2.27-5.52,0-4.15-.78-5.22-2.43-5.22h-.36v10.74h.52Z"/>
    <path class="cls-17" d="M165.77,244.16v-1.01c0-1.34.67-2.73,1.49-4.05,1.32-2.12,3.1-4.11,3.1-6.19,0-1.15-.25-2.06-1.2-2.06-.84,0-1.2.8-1.28,2.48h-2.04c.06-3,1.09-4.41,3.4-4.41,2.45,0,3.36,1.55,3.36,3.9,0,2.56-2.2,5.08-3.48,7.18-.46.78-.84,1.53-.88,2.14h4.36v2.01h-6.84Z"/>
    <path class="cls-17" d="M174.63,236.7c0-5.39.94-7.76,3.55-7.76s3.55,2.37,3.55,7.76-.97,7.64-3.55,7.64-3.55-2.16-3.55-7.64ZM179.45,236.7c0-4.2-.29-5.88-1.28-5.88s-1.26,1.68-1.26,5.88.25,5.75,1.26,5.75,1.28-1.47,1.28-5.75Z"/>
    <path class="cls-17" d="M183.57,244.16v-1.01c0-1.34.67-2.73,1.49-4.05,1.32-2.12,3.1-4.11,3.1-6.19,0-1.15-.25-2.06-1.2-2.06-.84,0-1.2.8-1.28,2.48h-2.04c.06-3,1.09-4.41,3.4-4.41,2.45,0,3.36,1.55,3.36,3.9,0,2.56-2.2,5.08-3.48,7.18-.46.78-.84,1.53-.88,2.14h4.36v2.01h-6.84Z"/>
    <path class="cls-17" d="M195.82,244.33c-1.87,0-3.17-.94-3.38-3.97l2.01-.19c.15,1.59.54,2.25,1.32,2.25,1.05,0,1.43-1.28,1.43-3.42,0-2.29-.5-3.13-1.41-3.13-.57,0-.94.38-1.22,1.11l-1.83-.15.5-7.74h5.52v2.01h-3.88l-.27,3.59h.04c.44-.4,1.01-.67,1.72-.67,1.97,0,3.08,1.68,3.08,4.93,0,3.44-1.17,5.37-3.65,5.37Z"/>
  </g>
  <path class="cls-9" d="M262.76,197.05v47.18c12.03,0,36.54,14.8,44.41,20.82-3.24-24.05-18.5-37.93-18.5-37.93,0,0,7.4-3.7,25.44-7.86-1.85-6.77-33.77-22.2-51.34-22.2Z"/>
  <path class="cls-9" d="M62.9,195.47v47.18c-12.03,0-36.54,14.8-44.41,20.82,3.24-24.05,18.5-37.93,18.5-37.93,0,0-7.4-3.7-25.44-7.86,1.85-6.77,33.77-22.2,51.34-22.2Z"/>
  <path class="cls-11" d="M269.97,233.41c.24-.58.48-1.16.68-1.75,1.57-4.5,2.56-21.59,3.18-44.32-11.86-3.78-37.38-11.1-68.8-15.26-14.08-1.87-29.35-3.1-45.1-3.1-44.6,0-85.29,9.89-106.24,16.02.61,23.89,1.62,42.01,3.24,46.66.2.58.43,1.16.67,1.72,6.46-2.32,28.07-20.54,102.33-20.54s103.09,18.36,110.04,20.56Z"/>
  <g class="cls-2">
    <path class="cls-6" d="M84.76,69.02l-6.8-26.69,7.4-1.89c7.21-1.84,11.78.72,14.2,10.2,2.19,8.59.6,14.46-7.28,16.46l-7.51,1.91ZM91.17,61.41c2.94-.75,3.41-3.72,2.05-9.03-1.49-5.84-3.39-7.09-6.03-6.42l-1.45.37,3.94,15.46,1.49-.38Z"/>
    <path class="cls-6" d="M115.56,34.15l6.28-1.05,3.02,18.05c1.04,6.21-1.22,9.89-7.62,10.96-6.32,1.06-9.43-1.73-10.47-7.93l-3.02-18.05,6.36-1.06,3.17,18.92c.38,2.27,1.46,3.14,3.2,2.85s2.63-1.49,2.25-3.76l-3.17-18.92Z"/>
    <path class="cls-6" d="M144.2,58.51l-3.87-10.02-2.25.2.89,10.28-6.38.55-2.38-27.44,8.41-.73c6-.52,9.33,1.46,9.82,7.16.29,3.33-.83,5.54-2.71,6.94l5.43,12.47-6.96.6ZM139.23,43.38c1.64-.14,2.96-.91,2.73-3.66-.29-3.36-2.04-3.1-3.15-3l-1.76.15.58,6.65,1.61-.14Z"/>
    <path class="cls-6" d="M167.72,57.64l-1.1-5.94-5.22.05-.9,5.96-6.52.07,5.62-27.6,8.36-.09,6.35,27.48-6.6.07ZM162.23,46.3l3.41-.04-1.79-9.88h-.12s-1.51,9.92-1.51,9.92Z"/>
    <path class="cls-6" d="M191.56,58.63l-5.91-15.68h-.08s-1.05,15.19-1.05,15.19l-5.66-.39,1.91-27.48,6.66.46,5.06,14.04h.08s.95-13.62.95-13.62l5.74.4-1.91,27.48-5.78-.4Z"/>
    <path class="cls-6" d="M216.19,61.64l.3-1.97h-.08c-1.82,1.5-3.61,1.81-5.7,1.5-5.08-.77-7.31-5.06-5.76-15.34,1.18-7.81,4.66-13.38,11.64-12.33,6.15.93,7.53,5.13,7.35,10.19l-5.88-.34c0-2.52-.58-4.16-2.28-4.42-2.01-.3-3.37,1.51-4.33,7.88s-.74,9.01,1.88,9.4c1.9.29,3.14-1.04,3.46-3.16.04-.27.1-.64.13-.87l-2.96-.45.72-4.78,8.65,1.3-2.13,14.15-5.01-.75Z"/>
    <path class="cls-6" d="M229.24,49.93c1.94-8.25,5.4-13.27,12.72-11.55s8.19,7.76,6.25,16.01c-2.01,8.55-5.87,13.09-12.71,11.48s-8.28-7.38-6.27-15.94ZM241.82,52.89c1.48-6.31,1.21-8.82-1.07-9.36-2.28-.54-3.64,1.59-5.13,7.9-1.55,6.61-1.08,8.81,1.08,9.32,2.2.52,3.57-1.25,5.12-7.86Z"/>
  </g>
  <g>
    <path class="cls-9" d="M85.06,208.15l-3.59-15.86-2.78.63-.59-2.6,8.36-1.89.59,2.6-2.75.62,3.59,15.86-2.83.64Z"/>
    <path class="cls-9" d="M99.03,205.25l-3.5-7.52-1.24.24,1.51,7.9-2.82.54-3.55-18.59,3.73-.71c3.29-.63,5.25.37,5.94,3.99.44,2.33-.11,3.91-1.3,4.86l4.29,8.71-3.06.58ZM94.7,195.4c1.4-.27,1.93-1.15,1.49-3.42-.49-2.56-1.52-2.63-2.87-2.38l-.62.12,1.12,5.85.88-.17Z"/>
    <path class="cls-9" d="M110.88,203.29l-1.38-4.59-3.1.48.1,4.79-2.89.45.24-19.2,3.8-.59,6.1,18.22-2.87.44ZM106.35,196.59l2.42-.38-2.5-8.39-.1.02.18,8.75Z"/>
    <path class="cls-9" d="M116.12,202.55l-2.41-18.78,2.88-.37,2.41,18.78-2.88.37Z"/>
    <path class="cls-9" d="M128.83,201.1l-5.24-12.19h-.05s1.28,12.6,1.28,12.6l-2.47.25-1.92-18.83,3.12-.32,4.33,10.27h.05s-1.08-10.6-1.08-10.6l2.49-.25,1.92,18.83-2.44.25Z"/>
    <path class="cls-9" d="M134.61,200.6l-1.42-18.88,2.89-.22,1.42,18.88-2.89.22Z"/>
    <path class="cls-9" d="M147.37,199.81l-4.61-12.44h-.05s.63,12.64.63,12.64l-2.48.12-.94-18.91,3.13-.16,3.8,10.48h.05s-.53-10.64-.53-10.64l2.5-.12.94,18.91-2.45.12Z"/>
    <path class="cls-9" d="M159.71,199.47l-.02-1.29h-.05c-.82,1.15-1.74,1.53-2.88,1.55-2.69.04-4.1-2.25-4.22-9.66-.09-5.41.76-9.64,4.72-9.71,3.61-.06,4.45,2.83,4.59,6.31l-2.69.04c-.17-2.24-.62-3.68-1.85-3.66-1.4.02-1.84,1.8-1.76,6.97.09,5.38.38,7.12,1.99,7.09,1.27-.02,1.74-1.53,1.71-3.22,0-.42-.02-.95-.08-1.34l-1.87.03-.04-2.45,4.67-.08.16,9.39-2.37.04Z"/>
    <path class="cls-9" d="M175.75,185.79c-.03-1.66-.45-2.81-1.58-2.84-.98-.03-1.39.59-1.42,1.62-.11,4.03,5.72,5.01,5.57,10.62-.08,2.93-1.76,4.67-4.61,4.6-3.03-.08-4.09-1.88-4.18-5.26l2.67-.08c.1,1.98.48,2.86,1.64,2.89,1,.03,1.6-.72,1.64-1.99.11-4.14-5.63-5.14-5.49-10.59.07-2.69,1.54-4.39,4.21-4.32,3.11.08,4.05,2.22,4.16,5.25l-2.59.09Z"/>
    <path class="cls-9" d="M189.98,193.66c-.34,4.07-1.55,6.8-4.87,6.61-3.9-.22-4.51-3.82-4.15-9.98.3-5.19,1.16-9.57,5.21-9.34,3.4.19,4.17,2.88,4.06,6.62l-2.68-.15c.03-2.38-.37-3.72-1.42-3.78-1.34-.08-1.87,1.69-2.16,6.82-.32,5.58.01,7.13,1.36,7.21,1.18.07,1.72-1.49,1.98-4.16l2.68.15Z"/>
    <path class="cls-9" d="M198.37,201.08l.77-8.51-3.1-.28-.77,8.51-2.86-.26,1.71-18.85,2.86.26-.7,7.77,3.1.28.71-7.77,2.84.26-1.71,18.86-2.84-.26Z"/>
    <path class="cls-9" d="M205.22,192.21c.86-6.91,2.45-9.42,5.96-8.98,3.48.43,4.43,3.26,3.57,10.17-.8,6.44-2.38,9.48-5.96,9.04-3.59-.45-4.36-3.79-3.56-10.22ZM211.76,193.02c.66-5.29.4-7.05-.91-7.21-1.33-.17-1.99,1.48-2.65,6.76-.69,5.5-.31,7.19.89,7.34,1.18.15,1.98-1.4,2.67-6.9Z"/>
    <path class="cls-9" d="M217.45,193.79c1.1-6.87,2.77-9.33,6.26-8.77,3.46.55,4.31,3.41,3.21,10.29-1.02,6.4-2.7,9.39-6.27,8.82-3.57-.57-4.23-3.93-3.21-10.34ZM223.96,194.83c.84-5.26.64-7.03-.66-7.23-1.33-.21-2.04,1.41-2.88,6.67-.88,5.47-.56,7.17.64,7.36,1.17.19,2.03-1.33,2.9-6.8Z"/>
    <path class="cls-9" d="M228.25,205.2l3.6-18.58,2.82.55-3.1,15.97,4.84.94-.51,2.61-7.66-1.49Z"/>
  </g>
</svg>